<?xml version="1.0" standalone="no"?>
<!DOCTYPE svg PUBLIC "-//W3C//DTD SVG 20010904//EN"
 "http://www.w3.org/TR/2001/REC-SVG-20010904/DTD/svg10.dtd">
<svg version="1.0" xmlns="http://www.w3.org/2000/svg"
 width="1106.000000pt" height="1087.000000pt" viewBox="0 0 1106.000000 1087.000000"
 preserveAspectRatio="xMidYMid meet">

<g transform="translate(0.000000,1087.000000) scale(0.100000,-0.100000)"
fill="#FFFF" stroke="none">
<path d="M5540 10833 c0 -16 -7 -176 -15 -357 -8 -181 -14 -331 -12 -332 1 -1
154 -8 339 -16 383 -15 348 -22 348 73 l0 46 -167 7 c-93 3 -212 9 -265 12
-93 6 -98 8 -93 28 2 11 7 109 10 216 3 107 8 230 12 273 l6 77 -82 0 -81 0 0
-27z"/>
<path d="M4885 10803 c-11 -2 -148 -31 -305 -64 -284 -61 -350 -82 -370 -118
-18 -36 -10 -115 35 -339 55 -276 66 -299 142 -309 40 -5 623 116 666 138 40
21 67 52 73 85 4 20 -10 113 -35 245 -51 262 -64 309 -93 336 -24 21 -78 34
-113 26z m43 -354 c23 -122 41 -223 40 -225 -6 -5 -521 -114 -525 -111 -6 6
-91 442 -87 446 5 5 485 109 509 110 19 1 24 -18 63 -220z"/>
<path d="M6612 10735 c-36 -26 -56 -76 -121 -305 -60 -212 -71 -282 -51 -321
18 -32 79 -56 371 -144 344 -104 387 -107 425 -33 32 62 144 469 144 524 0 47
-3 55 -35 83 -20 17 -38 31 -40 31 -2 0 -131 39 -287 86 -309 93 -370 105
-406 79z m364 -200 c135 -41 248 -75 250 -77 3 -3 -116 -429 -123 -437 -3 -5
-488 140 -506 151 -8 5 7 70 47 215 64 227 63 223 76 223 5 0 120 -34 256 -75z"/>
<path d="M3595 10409 c-27 -17 -54 -34 -58 -38 -7 -7 129 -276 195 -385 16
-26 27 -50 25 -52 -2 -3 -15 0 -28 4 -13 5 -176 40 -362 78 l-338 69 -47 -25
c-26 -14 -46 -29 -46 -33 1 -4 75 -147 164 -317 182 -347 154 -317 247 -263
l43 25 -62 116 c-33 65 -85 161 -115 215 -29 53 -53 99 -53 100 0 2 46 -7 103
-19 56 -13 220 -48 364 -77 l261 -54 46 25 c26 14 45 31 44 37 -5 19 -323 624
-328 625 -3 0 -27 -14 -55 -31z"/>
<path d="M7895 10240 c-11 -4 -32 -21 -47 -36 -26 -29 -220 -339 -258 -414
-29 -57 -26 -102 10 -143 29 -34 487 -339 536 -357 48 -19 93 -12 123 18 33
33 174 259 169 271 -2 6 -79 59 -172 120 -113 74 -173 108 -180 101 -7 -5 -22
-27 -34 -49 l-23 -40 111 -72 c60 -39 110 -74 109 -77 -1 -16 -76 -127 -85
-127 -5 0 -103 61 -217 135 -144 94 -205 139 -202 149 12 32 221 364 231 368
12 4 424 -261 424 -272 0 -3 -7 -20 -16 -36 -8 -17 -14 -32 -12 -33 2 -2 34
-15 71 -31 77 -32 74 -33 103 42 35 89 10 115 -296 314 -267 173 -298 189
-345 169z"/>
<path d="M4560 9555 l0 -134 73 -3 72 -3 6 -375 c3 -206 7 -577 8 -823 l1
-448 -37 -15 c-147 -61 -316 -158 -448 -258 -413 -313 -694 -796 -766 -1316
-19 -134 -16 -440 5 -565 49 -293 155 -566 313 -804 61 -92 60 -90 150 -196
251 -294 572 -503 943 -614 198 -59 359 -82 575 -82 1005 0 1848 745 1982
1751 16 118 8 473 -12 563 -3 12 -7 33 -9 47 -57 320 -200 622 -423 897 -142
176 -329 334 -540 459 l-113 67 0 848 0 849 50 0 50 0 0 145 0 145 -940 0
-940 0 0 -135z m1820 -5 l0 -70 -80 0 -80 0 0 -930 c0 -826 2 -930 15 -930 39
0 259 -126 380 -219 90 -68 269 -246 341 -338 392 -500 504 -1144 304 -1746
-226 -679 -834 -1179 -1546 -1272 -1043 -137 -1994 595 -2132 1640 -9 66 -9
376 0 440 76 551 392 1044 878 1368 107 71 293 168 362 189 l38 11 -5 226 c-2
124 -7 438 -10 696 -3 259 -8 553 -10 655 -2 102 -4 195 -5 208 0 21 -3 22
-100 22 l-100 0 0 60 0 60 875 0 875 0 0 -70z"/>
<path d="M4760 6636 c0 -5 -32 -173 -194 -1010 -57 -291 -73 -393 -65 -403 9
-10 95 -13 440 -13 l429 0 9 -23 c13 -35 82 -92 135 -112 87 -33 202 2 262 80
l26 35 428 0 c376 0 430 2 444 16 9 8 16 17 16 19 0 20 -263 1366 -270 1382
l-9 22 -330 3 -330 3 -10 -22 -11 -23 275 0 274 0 4 -22 4 -23 2 23 c0 12 7
25 15 28 22 8 75 -24 81 -49 2 -12 25 -128 50 -257 24 -129 78 -409 119 -622
41 -212 72 -395 70 -406 -3 -10 -21 -26 -40 -36 -32 -14 -73 -16 -407 -10
l-372 6 -50 -48 c-54 -53 -104 -74 -177 -74 -63 0 -143 42 -181 97 l-31 43
-393 0 -393 0 -14 23 c-13 20 -2 84 110 667 68 354 124 645 124 646 0 2 7 10
16 18 23 24 63 20 73 -6 l8 -22 5 22 c6 22 7 22 283 22 217 0 276 3 273 13 -4
9 -85 13 -351 15 -191 1 -347 0 -347 -2z"/>
<path d="M5490 6570 c5 -10 26 -28 45 -40 l36 -22 -3 -146 -3 -147 -34 -3
c-23 -2 -44 4 -65 19 -74 54 -101 71 -78 50 13 -11 36 -29 50 -40 26 -19 26
-20 8 -34 -18 -13 -19 -24 -11 -233 8 -237 10 -258 20 -291 9 -27 14 -28 29
-8 6 9 28 18 49 22 l38 6 -3 -257 -3 -256 39 0 c31 0 37 3 28 12 -9 9 -12 86
-12 288 l0 275 81 103 c44 56 84 102 88 102 5 0 103 -71 219 -159 116 -87 214
-156 217 -153 3 3 -2 13 -11 23 -12 13 -13 22 -5 38 17 31 13 36 -8 10 l-20
-24 -21 21 c-21 20 -21 23 -6 46 22 34 9 42 -18 11 l-23 -26 -154 112 c-85 62
-155 116 -157 120 -1 3 41 61 93 129 94 122 95 123 63 117 -18 -3 -100 -6
-183 -8 l-150 -2 -3 137 -3 136 42 29 c24 15 45 35 47 43 4 11 -1 10 -16 -4
-13 -11 -43 -21 -71 -24 -40 -4 -58 0 -95 21 -39 22 -44 23 -36 7z"/>
<path d="M6291 6514 c0 -11 3 -14 6 -6 3 7 2 16 -1 19 -3 4 -6 -2 -5 -13z"/>
<path d="M4871 6474 c0 -11 3 -14 6 -6 3 7 2 16 -1 19 -3 4 -6 -2 -5 -13z"/>
<path d="M6301 6454 c0 -11 3 -14 6 -6 3 7 2 16 -1 19 -3 4 -6 -2 -5 -13z"/>
<path d="M4861 6414 c0 -11 3 -14 6 -6 3 7 2 16 -1 19 -3 4 -6 -2 -5 -13z"/>
<path d="M5200 6427 c0 -21 25 -55 36 -50 8 3 22 -1 32 -8 16 -13 16 -12 0 7
-10 11 -18 26 -18 32 0 7 -4 12 -9 12 -5 0 -16 3 -25 6 -9 3 -16 4 -16 1z"/>
<path d="M6311 6394 c0 -11 3 -14 6 -6 3 7 2 16 -1 19 -3 4 -6 -2 -5 -13z"/>
<path d="M4852 6360 c0 -14 2 -19 5 -12 2 6 2 18 0 25 -3 6 -5 1 -5 -13z"/>
<path d="M5290 6357 c0 -3 17 -17 37 -33 20 -15 33 -23 29 -16 -8 13 -66 56
-66 49z"/>
<path d="M6321 6344 c0 -11 3 -14 6 -6 3 7 2 16 -1 19 -3 4 -6 -2 -5 -13z"/>
<path d="M4841 6304 c0 -11 3 -14 6 -6 3 7 2 16 -1 19 -3 4 -6 -2 -5 -13z"/>
<path d="M6332 6280 c0 -14 2 -19 5 -12 2 6 2 18 0 25 -3 6 -5 1 -5 -13z"/>
<path d="M4832 6250 c0 -14 2 -19 5 -12 2 6 2 18 0 25 -3 6 -5 1 -5 -13z"/>
<path d="M6341 6224 c0 -11 3 -14 6 -6 3 7 2 16 -1 19 -3 4 -6 -2 -5 -13z"/>
<path d="M4821 6184 c0 -11 3 -14 6 -6 3 7 2 16 -1 19 -3 4 -6 -2 -5 -13z"/>
<path d="M6351 6174 c0 -11 3 -14 6 -6 3 7 2 16 -1 19 -3 4 -6 -2 -5 -13z"/>
<path d="M4811 6134 c0 -11 3 -14 6 -6 3 7 2 16 -1 19 -3 4 -6 -2 -5 -13z"/>
<path d="M6362 6110 c0 -14 2 -19 5 -12 2 6 2 18 0 25 -3 6 -5 1 -5 -13z"/>
<path d="M4801 6074 c0 -11 3 -14 6 -6 3 7 2 16 -1 19 -3 4 -6 -2 -5 -13z"/>
<path d="M6371 6054 c0 -11 3 -14 6 -6 3 7 2 16 -1 19 -3 4 -6 -2 -5 -13z"/>
<path d="M4792 6020 c0 -14 2 -19 5 -12 2 6 2 18 0 25 -3 6 -5 1 -5 -13z"/>
<path d="M6382 6000 c0 -14 2 -19 5 -12 2 6 2 18 0 25 -3 6 -5 1 -5 -13z"/>
<path d="M4782 5960 c0 -14 2 -19 5 -12 2 6 2 18 0 25 -3 6 -5 1 -5 -13z"/>
<path d="M6392 5940 c0 -14 2 -19 5 -12 2 6 2 18 0 25 -3 6 -5 1 -5 -13z"/>
<path d="M4771 5904 c0 -11 3 -14 6 -6 3 7 2 16 -1 19 -3 4 -6 -2 -5 -13z"/>
<path d="M6402 5880 c0 -14 2 -19 5 -12 2 6 2 18 0 25 -3 6 -5 1 -5 -13z"/>
<path d="M4762 5850 c0 -14 2 -19 5 -12 2 6 2 18 0 25 -3 6 -5 1 -5 -13z"/>
<path d="M6411 5824 c0 -11 3 -14 6 -6 3 7 2 16 -1 19 -3 4 -6 -2 -5 -13z"/>
<path d="M4752 5790 c0 -14 2 -19 5 -12 2 6 2 18 0 25 -3 6 -5 1 -5 -13z"/>
<path d="M6422 5770 c0 -14 2 -19 5 -12 2 6 2 18 0 25 -3 6 -5 1 -5 -13z"/>
<path d="M4741 5734 c0 -11 3 -14 6 -6 3 7 2 16 -1 19 -3 4 -6 -2 -5 -13z"/>
<path d="M6432 5710 c0 -14 2 -19 5 -12 2 6 2 18 0 25 -3 6 -5 1 -5 -13z"/>
<path d="M4732 5680 c0 -14 2 -19 5 -12 2 6 2 18 0 25 -3 6 -5 1 -5 -13z"/>
<path d="M6441 5654 c0 -11 3 -14 6 -6 3 7 2 16 -1 19 -3 4 -6 -2 -5 -13z"/>
<path d="M5471 5634 c0 -11 3 -14 6 -6 3 7 2 16 -1 19 -3 4 -6 -2 -5 -13z"/>
<path d="M4722 5620 c0 -14 2 -19 5 -12 2 6 2 18 0 25 -3 6 -5 1 -5 -13z"/>
<path d="M6452 5600 c0 -14 2 -19 5 -12 2 6 2 18 0 25 -3 6 -5 1 -5 -13z"/>
<path d="M5448 5545 c-8 -30 -12 -55 -7 -55 8 0 32 100 26 106 -2 2 -11 -21
-19 -51z"/>
<path d="M4712 5560 c0 -14 2 -19 5 -12 2 6 2 18 0 25 -3 6 -5 1 -5 -13z"/>
<path d="M6462 5540 c0 -14 2 -19 5 -12 2 6 2 18 0 25 -3 6 -5 1 -5 -13z"/>
<path d="M4702 5510 c0 -14 2 -19 5 -12 2 6 2 18 0 25 -3 6 -5 1 -5 -13z"/>
<path d="M6471 5484 c0 -11 3 -14 6 -6 3 7 2 16 -1 19 -3 4 -6 -2 -5 -13z"/>
<path d="M4692 5450 c0 -14 2 -19 5 -12 2 6 2 18 0 25 -3 6 -5 1 -5 -13z"/>
<path d="M6482 5430 c0 -14 2 -19 5 -12 2 6 2 18 0 25 -3 6 -5 1 -5 -13z"/>
<path d="M4682 5373 c-1 -24 0 -43 2 -43 2 0 13 -3 23 -6 17 -6 17 -6 1 7 -9
8 -19 30 -21 49 -4 33 -4 33 -5 -7z"/>
<path d="M6492 5363 c-1 -20 -10 -37 -24 -47 -12 -9 -18 -16 -12 -16 27 0 45
27 41 60 l-4 35 -1 -32z"/>
<path d="M4903 5323 c93 -2 241 -2 330 0 89 1 14 3 -168 3 -181 0 -254 -2
-162 -3z"/>
<path d="M6113 5303 c15 -2 37 -2 50 0 12 2 0 4 -28 4 -27 0 -38 -2 -22 -4z"/>
<path d="M2444 9620 c-37 -18 -97 -79 -347 -348 -38 -40 -75 -89 -83 -108 -27
-64 -10 -90 185 -287 214 -217 226 -225 297 -191 48 23 401 398 426 452 26 57
14 91 -56 168 l-52 58 -65 -44 c-35 -25 -66 -46 -68 -47 -3 -2 20 -28 49 -58
l54 -55 -55 -58 c-30 -31 -92 -96 -138 -143 -45 -48 -90 -97 -98 -109 -15 -22
-18 -20 -174 136 -88 87 -159 163 -159 167 0 5 68 81 152 168 l152 160 46 -46
c53 -52 48 -54 110 38 l32 49 -38 40 c-68 70 -114 85 -170 58z"/>
<path d="M8713 9235 c-128 -140 -233 -258 -233 -262 0 -5 24 -33 54 -62 l54
-53 241 263 241 263 -52 53 c-29 29 -57 53 -63 53 -5 0 -115 -115 -242 -255z"/>
<path d="M6458 8804 c-2 -208 -2 -384 0 -389 1 -6 165 -170 365 -365 199 -194
476 -466 615 -603 l252 -249 0 106 c0 61 4 106 10 106 5 0 119 -126 252 -279
134 -154 245 -274 247 -268 3 7 16 67 30 135 14 68 30 123 34 123 5 1 229
-201 500 -448 270 -246 497 -452 506 -457 8 -5 -4 17 -27 50 -728 1027 -1369
1923 -1374 1924 -5 0 -8 -5 -8 -11 0 -22 -71 -239 -79 -239 -4 0 -119 140
-255 310 -136 171 -251 310 -254 310 -4 0 -32 -47 -62 -105 -30 -58 -58 -105
-61 -105 -4 0 -156 183 -339 408 -183 224 -337 411 -341 416 -5 5 -10 -161
-11 -370z"/>
<path d="M4250 8759 c-190 -219 -348 -398 -351 -398 -4 -1 -19 46 -34 104 -16
58 -31 108 -35 110 -4 3 -110 -117 -235 -265 -125 -148 -231 -267 -236 -265
-4 3 -24 48 -45 100 -36 91 -39 95 -55 78 -9 -10 -258 -358 -554 -773 -296
-415 -605 -849 -688 -964 -82 -115 -136 -199 -120 -185 15 13 237 211 492 439
256 228 469 415 474 415 6 0 22 -43 37 -95 14 -52 28 -101 31 -109 3 -9 83 72
213 215 115 126 211 230 215 231 3 2 28 -38 55 -87 27 -50 54 -89 59 -87 5 1
266 273 579 602 l569 600 -7 265 c-3 146 -9 311 -13 366 l-6 102 -345 -399z"/>
<path d="M9305 8955 c-46 -23 -366 -261 -402 -300 -27 -29 -33 -43 -33 -80 0
-41 10 -60 96 -188 239 -352 266 -383 332 -373 30 4 90 38 145 80 17 13 17 17
-13 87 -17 40 -33 75 -35 77 -2 2 -28 -15 -58 -37 -29 -23 -58 -41 -63 -41 -8
1 -244 337 -252 359 -3 8 330 259 352 267 11 3 256 -345 256 -362 0 -5 -23
-25 -50 -45 l-49 -35 53 -60 c52 -58 54 -59 80 -45 15 8 47 36 71 62 48 51 55
81 35 135 -17 43 -309 462 -342 489 -34 29 -78 32 -123 10z"/>
<path d="M1622 8668 c-169 -284 -312 -527 -316 -539 -4 -10 87 -72 290 -198
162 -101 296 -182 298 -180 2 2 88 145 189 317 l186 312 -52 35 c-28 19 -55
31 -59 27 -7 -7 -60 -95 -202 -335 -48 -81 -91 -147 -95 -145 -25 10 -141 84
-141 90 0 4 36 68 81 143 89 150 88 142 19 183 l-36 21 -77 -134 c-43 -74 -82
-137 -88 -140 -9 -6 -124 58 -132 73 -2 4 60 115 139 247 159 268 152 242 73
289 l-28 16 -49 -82z"/>
<path d="M9769 7776 c-242 -83 -268 -94 -299 -133 -33 -42 -24 -90 80 -408 99
-300 117 -345 152 -369 37 -26 82 -19 262 43 249 86 285 100 318 130 49 44 43
85 -63 412 -50 156 -100 300 -110 321 -23 45 -64 78 -98 78 -15 0 -123 -33
-242 -74z m330 -355 c45 -139 79 -257 74 -262 -4 -4 -91 -37 -193 -73 -102
-35 -193 -67 -202 -71 -14 -6 -29 31 -102 256 -47 144 -83 265 -80 268 11 12
409 148 415 142 3 -3 43 -120 88 -260z"/>
<path d="M1017 7388 c-64 -211 -117 -390 -117 -399 0 -11 17 -21 53 -31 28 -9
53 -14 55 -13 1 1 23 69 48 151 25 82 47 151 50 155 2 4 126 -33 275 -81 179
-59 272 -84 275 -77 18 51 44 132 44 138 0 5 -121 47 -270 95 -148 48 -270 93
-270 99 0 7 20 78 45 159 25 82 45 149 45 151 0 2 -23 9 -101 31 -13 3 -37
-67 -132 -378z"/>
<path d="M814 5813 c32 -868 272 -1647 729 -2369 267 -422 640 -833 1052
-1160 623 -495 1391 -828 2178 -944 261 -38 359 -45 687 -44 347 0 475 10 773
60 930 157 1808 614 2492 1299 646 646 1086 1455 1270 2337 59 283 88 547 98
881 l4 127 -1192 0 c-1123 0 -1193 -1 -1207 -17 -11 -13 -17 -53 -22 -148 -16
-356 -110 -676 -287 -986 -179 -312 -476 -613 -786 -796 -272 -159 -587 -261
-907 -292 -883 -86 -1746 394 -2148 1194 -144 285 -217 565 -234 895 -5 97
-10 128 -23 137 -12 10 -294 12 -1250 13 l-1234 0 7 -187z m348 -3 c4 -30 14
-127 23 -215 132 -1281 850 -2474 1925 -3202 948 -641 2087 -872 3205 -648
687 137 1318 440 1885 904 140 114 408 378 533 524 592 693 961 1543 1052
2422 9 88 19 179 21 203 l5 42 100 0 99 0 0 -27 c0 -109 -39 -433 -75 -630
-320 -1738 -1592 -3162 -3253 -3638 -733 -211 -1527 -227 -2267 -45 -672 165
-1273 471 -1825 928 -154 127 -452 427 -581 583 -581 704 -943 1540 -1059
2444 -22 174 -36 376 -27 399 6 14 23 16 119 14 l113 -3 7 -55z m1505 52 c6
-4 16 -58 22 -127 35 -374 125 -688 294 -1018 328 -644 909 -1144 1588 -1370
143 -48 364 -100 474 -112 28 -3 64 -8 80 -10 218 -33 639 -18 830 29 6 2 28
6 50 11 313 60 666 208 948 395 183 122 280 202 438 359 156 157 237 256 355
433 239 360 405 812 440 1203 4 44 8 89 9 100 1 11 3 35 4 53 l1 32 350 0 350
0 0 -82 c0 -189 -39 -481 -95 -708 -120 -486 -358 -955 -678 -1340 -106 -127
-368 -384 -492 -484 -887 -706 -2046 -937 -3137 -625 -900 258 -1658 874
-2092 1700 -233 443 -366 950 -378 1434 -1 61 1 116 5 123 6 9 80 12 315 12
169 0 312 -4 319 -8z m450 0 c8 -5 17 -51 23 -113 60 -610 353 -1168 820
-1561 106 -89 305 -225 421 -287 209 -112 485 -202 744 -241 124 -19 139 -20
330 -20 378 -1 700 72 1030 234 475 234 839 599 1075 1081 119 242 185 460
216 717 11 86 11 91 13 131 l1 38 73 -3 72 -3 -3 -80 c-22 -584 -286 -1176
-717 -1610 -384 -387 -837 -618 -1392 -712 -86 -14 -162 -18 -378 -18 -302 0
-406 13 -651 80 -880 242 -1572 969 -1768 1860 -38 171 -68 459 -53 499 5 12
21 16 69 16 35 0 69 -4 75 -8z m-1455 -132 c73 -21 127 -117 114 -205 -15 -94
-78 -149 -164 -142 -85 6 -142 75 -142 171 0 78 40 143 105 172 37 16 41 16
87 4z m7685 -118 c11 -6 32 -25 47 -42 111 -133 -14 -350 -166 -287 -82 34
-121 145 -84 241 34 89 126 129 203 88z m-7440 -834 c82 -75 83 -210 3 -282
-34 -31 -47 -36 -89 -36 -120 0 -196 137 -142 255 22 49 48 73 97 90 46 15 97
5 131 -27z m7234 -94 c18 -11 43 -39 57 -64 30 -57 28 -154 -4 -197 -87 -117
-235 -87 -274 56 -18 67 3 143 52 188 47 45 110 51 169 17z m-6852 -703 c129
-66 113 -286 -25 -331 -131 -43 -239 115 -175 256 38 83 122 115 200 75z
m6421 -133 c55 -38 74 -71 78 -141 3 -50 0 -72 -17 -104 -61 -121 -207 -117
-271 7 -7 14 -14 50 -14 80 -2 135 126 225 224 158z m-5803 -587 c92 -66 97
-209 11 -286 -34 -31 -44 -35 -93 -35 -47 0 -59 4 -91 32 -157 138 6 410 173
289z m5210 -104 c49 -33 73 -84 73 -154 0 -46 -5 -68 -23 -94 -90 -133 -261
-88 -283 75 -12 86 34 164 113 191 44 16 75 11 120 -18z m-4467 -449 c53 -37
73 -71 78 -135 6 -104 -52 -182 -145 -190 -39 -4 -55 0 -83 19 -78 53 -106
176 -57 249 52 77 141 102 207 57z m3710 -40 c54 -37 73 -71 78 -138 5 -74 -8
-109 -59 -155 -33 -30 -46 -35 -88 -35 -123 0 -199 141 -140 260 42 85 138
116 209 68z m-2821 -305 c73 -54 93 -185 37 -257 -38 -51 -79 -69 -138 -64
-102 10 -167 121 -132 226 28 84 85 125 163 118 24 -2 55 -12 70 -23z m1934
-67 c36 -24 67 -93 67 -150 0 -168 -194 -236 -281 -97 -23 35 -29 57 -29 99 0
141 131 221 243 148z m-997 -46 c39 -15 81 -68 94 -118 36 -145 -91 -265 -217
-205 -86 40 -117 174 -59 260 43 65 113 89 182 63z"/>
<path d="M10888 5648 c-3 -40 -4 -78 -1 -85 5 -13 57 -20 121 -14 l42 3 0 84
0 84 -79 0 -78 0 -5 -72z"/>
<path d="M475 5472 l7 -149 -79 -6 c-43 -4 -149 -12 -235 -18 l-158 -12 0 -51
c0 -58 9 -77 36 -78 17 -1 114 6 249 17 28 2 83 7 123 10 l72 6 1 -38 c1 -21
4 -85 8 -143 l6 -105 39 -3 c21 -2 43 1 48 6 8 8 -10 422 -28 640 l-6 72 -45
0 -46 0 8 -148z"/>
<path d="M10508 5340 c-9 -6 -23 -29 -32 -53 -18 -47 -76 -418 -76 -483 0 -51
27 -89 72 -99 18 -4 40 -9 48 -11 47 -12 119 -14 142 -5 15 5 34 23 42 40 9
16 29 121 46 233 39 258 37 247 58 244 9 -2 38 -7 65 -10 40 -6 47 -11 47 -30
0 -12 -13 -110 -30 -217 -16 -106 -30 -200 -30 -208 0 -10 -9 -12 -35 -8 l-35
6 0 -60 c0 -32 3 -60 8 -60 38 -6 90 -4 104 3 34 17 51 74 84 288 43 269 45
322 14 355 -26 27 -130 55 -208 55 -84 0 -98 -28 -132 -260 -11 -80 -26 -172
-31 -206 l-11 -61 -61 11 c-73 14 -70 -12 -30 254 l27 183 34 -6 c34 -5 34 -5
28 26 -3 17 -6 44 -6 60 0 27 -2 29 -42 29 -24 0 -51 -5 -60 -10z"/>
<path d="M373 4750 c-117 -33 -226 -66 -242 -75 -37 -19 -51 -43 -51 -89 0
-48 98 -493 116 -528 27 -52 55 -61 136 -42 43 10 36 9 88 23 25 7 52 15 60
17 8 2 74 20 146 40 l131 36 -12 60 c-7 32 -15 61 -17 63 -2 2 -104 -23 -226
-57 -123 -33 -224 -59 -226 -57 -2 2 -24 95 -48 207 l-45 203 26 13 c14 8 42
17 61 21 19 4 55 13 80 20 25 7 71 20 103 29 91 25 171 48 179 52 3 2 3 19 -2
37 -4 17 -11 44 -14 60 -4 15 -12 27 -19 26 -6 0 -107 -27 -224 -59z"/>
<path d="M10315 4467 c-2 -6 -10 -34 -19 -61 -9 -27 -14 -51 -13 -53 2 -2 35
-14 73 -27 38 -14 101 -36 139 -51 39 -14 95 -34 125 -44 30 -11 86 -31 125
-45 38 -14 71 -23 73 -21 4 4 41 119 38 121 0 1 -71 27 -156 57 -85 30 -206
74 -268 96 -80 29 -114 37 -117 28z"/>
<path d="M10204 4049 c-15 -32 -26 -60 -23 -62 17 -13 163 -97 170 -97 4 0 11
-4 14 -10 7 -12 -184 -420 -198 -420 -5 0 -50 23 -99 51 -50 28 -91 49 -93 47
-5 -6 -55 -107 -55 -112 0 -4 32 -22 225 -131 28 -15 79 -45 115 -65 36 -21
86 -50 112 -64 l48 -26 30 59 30 59 -111 62 c-61 35 -108 68 -106 74 34 85
193 406 202 406 6 0 32 -13 58 -30 26 -16 50 -30 53 -30 3 0 18 -8 32 -19 58
-40 69 -37 99 23 15 31 25 58 22 61 -3 3 -116 67 -251 144 l-246 138 -28 -58z"/>
<path d="M715 3804 c-38 -107 -72 -197 -75 -199 -3 -2 -86 27 -185 65 -99 37
-181 66 -183 65 -1 -1 11 -33 26 -71 l28 -69 140 -47 c89 -30 139 -51 138 -60
-1 -7 -27 -79 -59 -161 l-57 -147 34 -85 34 -85 73 208 c41 114 78 215 82 224
8 15 14 15 66 -7 178 -72 263 -102 263 -93 0 6 -9 36 -21 68 l-20 56 -125 43
c-68 24 -124 48 -124 54 0 6 23 69 51 141 l50 130 -32 83 c-17 46 -32 83 -33
83 -1 0 -32 -88 -71 -196z"/>
<path d="M1013 3298 c-15 -12 -30 -23 -32 -24 -2 -2 27 -54 63 -117 36 -62 66
-119 66 -125 0 -6 -87 -73 -192 -148 -106 -75 -194 -138 -196 -139 -2 -2 53
-103 62 -112 2 -2 91 60 200 137 108 77 199 140 201 140 2 0 34 -53 70 -117
37 -65 69 -119 70 -121 5 -6 75 43 75 52 0 17 -334 585 -346 590 -7 3 -25 -5
-41 -16z"/>
<path d="M9800 3183 c-34 -24 -35 -24 -169 -233 -135 -212 -150 -244 -127
-289 9 -17 83 -82 168 -149 151 -117 203 -152 231 -152 31 0 70 47 180 218
131 203 157 251 157 286 0 27 -44 83 -92 117 l-30 22 -44 -44 c-24 -24 -44
-46 -44 -49 0 -4 20 -21 46 -39 25 -18 44 -38 42 -45 -7 -26 -204 -325 -213
-322 -17 5 -294 221 -294 230 -1 8 22 45 156 254 l54 83 43 -36 44 -36 26 57
c15 32 24 64 22 70 -7 17 -75 61 -106 69 -16 3 -34 -1 -50 -12z"/>
<path d="M1253 2442 l-212 -207 166 -205 c91 -113 174 -216 184 -229 l20 -24
34 33 c19 19 35 37 35 40 0 3 -63 84 -141 180 l-140 174 175 175 175 176 -42
47 -42 47 -212 -207z"/>
<path d="M8633 1842 c-122 -97 -222 -180 -223 -185 0 -9 43 -77 50 -77 3 0 67
50 143 110 75 61 142 110 147 110 7 0 9 -13 5 -32 -3 -18 -23 -157 -45 -310
-33 -227 -38 -281 -29 -302 7 -14 15 -26 18 -26 10 0 486 380 489 391 2 6 -8
28 -22 50 l-26 39 -153 -121 c-189 -152 -177 -143 -181 -138 -2 2 18 144 44
314 46 308 49 356 16 354 -6 0 -111 -80 -233 -177z"/>
<path d="M1758 1836 l-298 -122 28 -25 c74 -66 64 -64 128 -35 31 14 61 26 67
26 10 0 32 -20 200 -176 l88 -83 -15 -78 -15 -78 52 -47 c41 -37 53 -43 56
-30 2 9 30 168 62 352 l58 335 -44 43 c-24 23 -50 42 -57 41 -7 0 -147 -55
-310 -123z m267 -146 c-19 -96 -32 -140 -40 -138 -25 6 -188 169 -178 179 12
12 237 109 242 104 2 -3 -9 -68 -24 -145z"/>
<path d="M9281 1846 l-54 -55 42 -56 c43 -57 48 -58 88 -22 13 11 25 18 28 15
3 -3 13 -49 23 -102 l17 -97 22 23 c21 22 21 26 9 129 -11 102 -13 107 -56
162 -25 31 -49 57 -55 57 -6 0 -35 -25 -64 -54z"/>
<path d="M8030 1404 c-135 -79 -246 -148 -248 -152 -1 -5 45 -109 104 -233 58
-123 116 -245 128 -271 l21 -47 250 145 c138 80 254 149 259 154 5 5 -1 29
-14 55 -21 43 -23 45 -44 32 -69 -43 -374 -217 -382 -217 -12 0 -76 129 -69
140 2 4 54 36 115 71 60 35 110 67 110 72 0 7 -28 67 -35 75 -2 2 -56 -27
-120 -63 -64 -37 -117 -66 -119 -64 -12 17 -56 111 -56 122 0 7 88 63 195 126
107 62 195 117 195 122 0 18 -29 79 -37 78 -4 -1 -118 -66 -253 -145z"/>
<path d="M2790 1300 c-35 -49 -172 -391 -178 -443 -4 -41 -1 -52 19 -74 30
-32 471 -253 505 -253 14 0 34 5 46 11 20 11 69 108 113 225 l24 61 -154 74
-154 74 -17 -43 c-9 -24 -15 -45 -13 -46 2 -2 46 -25 97 -50 50 -25 92 -50 92
-55 0 -11 -41 -113 -49 -123 -7 -8 -391 176 -391 187 0 12 142 350 151 360 14
15 391 -176 386 -195 -3 -8 -8 -23 -12 -32 -5 -14 3 -20 46 -32 29 -9 56 -16
60 -16 9 0 23 68 20 100 -5 52 -31 70 -262 185 -260 130 -291 138 -329 85z"/>
<path d="M7305 1026 c-317 -126 -286 -110 -275 -143 5 -15 48 -148 95 -295
l86 -267 52 22 c29 11 53 21 54 22 2 1 -43 152 -63 215 -4 11 12 21 53 38 33
12 63 22 68 22 6 0 74 -30 152 -66 l143 -67 72 28 c40 15 77 31 81 35 4 3 -63
34 -150 67 l-158 61 60 27 c117 51 126 82 75 246 -34 109 -56 139 -103 139
-18 0 -126 -38 -242 -84z m229 -79 c10 -21 20 -55 23 -76 5 -35 3 -41 -23 -54
-68 -35 -309 -126 -315 -119 -6 6 -46 133 -50 157 -2 13 299 135 326 132 12
-1 27 -17 39 -40z"/>
<path d="M3616 959 c-30 -88 -129 -486 -130 -522 -1 -72 19 -85 258 -162 231
-74 255 -80 290 -71 28 7 60 66 81 149 26 99 56 212 70 265 8 28 21 76 29 106
l14 53 -55 17 c-30 10 -56 16 -58 14 -2 -2 -31 -109 -66 -238 -34 -129 -65
-239 -69 -243 -4 -5 -90 18 -191 51 -206 66 -193 54 -165 152 7 25 23 83 36
130 12 47 30 112 40 145 9 33 20 76 24 96 6 35 5 36 -35 48 -23 7 -47 15 -55
18 -8 3 -16 -1 -18 -8z"/>
<path d="M6468 772 c-130 -32 -239 -60 -242 -63 -5 -5 101 -599 108 -607 6 -6
101 21 107 31 4 5 3 24 -2 41 -13 52 -22 109 -23 150 l-1 39 64 15 64 14 133
-91 133 -91 48 10 c26 6 65 15 87 21 l38 10 -138 80 c-77 44 -143 84 -148 89
-4 4 17 13 48 20 63 13 111 47 120 86 4 14 2 51 -3 82 -6 31 -13 71 -16 87
-14 85 -25 109 -55 125 -32 17 -76 10 -322 -48z m270 -137 c12 -59 12 -69 -1
-83 -18 -17 -338 -94 -349 -84 -3 4 -9 24 -12 44 -3 21 -10 57 -15 80 -6 23
-8 44 -6 47 13 12 333 77 350 71 15 -5 23 -23 33 -75z"/>
<path d="M4316 703 c-4 -28 -2 -49 4 -53 6 -4 64 -15 130 -24 75 -11 120 -22
120 -29 -1 -7 -16 -122 -34 -257 -19 -135 -33 -246 -32 -247 4 -5 109 -23 112
-20 4 4 12 50 19 112 6 54 15 119 21 149 2 10 6 44 9 75 3 31 8 67 10 81 3 14
7 41 10 60 3 19 7 35 8 37 2 1 57 -7 122 -17 66 -11 125 -20 131 -20 7 0 11
20 10 52 l-1 52 -300 48 c-165 26 -307 47 -316 48 -12 0 -18 -13 -23 -47z"/>
<path d="M5732 660 c-150 -15 -275 -30 -278 -32 -5 -6 36 -610 42 -617 4 -4
436 34 532 46 42 6 42 6 42 47 0 72 8 70 -235 46 -120 -11 -222 -17 -226 -13
-4 4 -9 40 -12 80 -5 84 -12 78 108 88 44 3 97 8 117 11 l37 6 -4 46 c-3 25
-6 47 -8 48 -2 2 -43 -1 -92 -6 -50 -5 -109 -10 -132 -10 l-41 0 -4 68 c-2 37
0 69 4 73 5 3 102 14 218 24 116 10 215 22 221 26 11 7 2 100 -10 98 -3 -1
-129 -14 -279 -29z"/>
<path d="M5090 633 c0 -16 -7 -155 -16 -311 -9 -156 -15 -285 -13 -286 2 -2
30 -6 62 -9 l57 -6 1 52 c0 29 2 79 4 112 2 33 7 107 10 165 3 58 8 148 11
201 l6 96 -48 7 c-71 9 -74 9 -74 -21z"/>
</g>
</svg>
